<svg width="81" height="81" viewBox="0 0 81 81" fill="none" xmlns="http://www.w3.org/2000/svg">
<path d="M73.0262 63.5828L74.1151 47.3762C81.1553 39.9961 80.0136 29.7237 80.0136 29.7237C80.0136 18.9279 71.6651 10.1763 61.3667 10.1763C51.0683 10.1763 42.7198 18.9278 42.7198 29.7235V32.3166L39.4724 43.5146C39.2892 44.1467 39.7463 44.783 40.384 44.783H44.6227L44.9171 55.0453C44.9635 56.6629 46.3332 57.8953 47.8871 57.7179L54.6122 56.9501L56.0024 65.4982" fill="#F9C5B5"/>
<g opacity="0.1">
<path d="M71.0194 47.376L69.9307 63.8023L73.021 63.455L74.1149 47.376H71.0194Z" fill="#020231"/>
</g>
<path d="M31.7849 18.7903C35.0893 18.7903 37.7679 16.0175 37.7679 12.597C37.7679 9.17651 35.0893 6.40378 31.7849 6.40378C31.5588 6.40378 31.3362 6.41785 31.1167 6.44324C29.8157 3.23785 26.7548 0.986572 23.1854 0.986572C18.4361 0.986572 14.586 4.97204 14.586 9.88834C14.586 9.8906 14.5861 9.89287 14.5861 9.89513C12.3203 10.0213 10.5205 11.9627 10.5205 14.3395C10.5205 16.7976 12.4455 18.7904 14.8203 18.7904H31.7849V18.7903Z" fill="#0077B6"/>
<path opacity="0.1" d="M31.7817 6.40378C31.5556 6.40378 31.3329 6.41785 31.1134 6.44324C29.8125 3.23785 26.7515 0.986572 23.1822 0.986572C22.4266 0.986572 21.6942 1.08815 20.9961 1.27771C23.5964 1.98306 25.7165 3.9162 26.742 6.44324C26.9615 6.41801 27.1842 6.40378 27.4103 6.40378C30.7146 6.40378 33.3932 9.17651 33.3932 12.597C33.3932 16.0174 30.7146 18.7903 27.4103 18.7903H31.7817C35.086 18.7903 37.7646 16.0175 37.7646 12.597C37.7644 9.17651 35.0859 6.40378 31.7817 6.40378Z" fill="#020231"/>
<path opacity="0.1" d="M6.30762 40.1654L6.50871 41.9503L23.4755 40.9162L23.0741 39.1191L6.30762 40.1654Z" fill="#020231"/>
<path d="M68.3573 40.7853L67.3514 45.1721L70.3579 44.7292L71.752 49.7303C71.752 49.7303 80.6221 43.2076 80.6221 31.1269C80.6221 21.1455 74.1135 14.5311 73.05 13.565C72.947 13.4716 72.889 13.3375 72.889 13.1958V5.20171C72.889 4.80221 72.5473 4.49539 72.1654 4.55151L62.5866 5.95964C62.4428 5.98082 62.2966 5.95025 62.1719 5.87327L56.8774 2.59946C56.6054 2.43141 56.2552 2.49675 56.0569 2.75246L50.6626 9.7198C50.4482 9.9967 50.0598 10.0472 49.7857 9.83367L46.0693 6.93591C45.6196 6.58541 44.9845 6.96939 45.0587 7.54697L47.1756 24.0231C47.2381 24.5093 47.7745 24.7555 48.1645 24.4773L50.7912 22.603C51.0207 22.4393 51.3265 22.4497 51.5451 22.6287L54.8641 25.3484C55.0821 25.5268 55.3868 25.5378 55.6161 25.3754L58.9416 23.0203C59.3599 22.7241 59.9283 23.03 59.9342 23.5545L60.0716 35.6848C60.0757 36.0445 60.3585 36.3339 60.706 36.3339H61.9735C62.2672 36.3339 62.5225 36.1252 62.5906 35.8294L68.3573 40.7853Z" fill="#7C4238"/>
<g opacity="0.1">
<path d="M73.0511 13.5646C72.9481 13.4711 72.8901 13.337 72.8901 13.1953V5.20127C72.8901 4.80177 72.5484 4.49495 72.1665 4.55107L68.5625 5.08094C68.5695 5.12024 68.5753 5.15987 68.5753 5.20127V13.1957C68.5753 13.3374 68.6334 13.4713 68.7362 13.5649C69.7998 14.531 76.3084 21.1454 76.3084 31.1268C76.3084 38.1386 73.3201 43.2776 70.8128 46.3559L71.7534 49.73C71.7534 49.73 80.6235 43.2073 80.6235 31.1267C80.6232 21.1451 74.1147 14.5307 73.0511 13.5646Z" fill="#020231"/>
</g>
<path d="M63.1233 34.789C65.0672 32.7767 67.8793 32.4254 69.4043 34.004C70.9293 35.5826 70.5899 38.4936 68.6461 40.5059C66.7022 42.5181 63.89 42.8694 62.365 41.2908C62.365 41.291 59.5858 38.5101 63.1233 34.789Z" fill="#FFAEAE"/>
<path d="M20.8734 39.2855L5.31836 40.386V29.0247L25.9528 30.509V38.9019L20.8734 39.2855Z" fill="#FFC433"/>
<path d="M28.429 40.3862H26.9048C26.3792 40.3862 25.9531 39.9451 25.9531 39.401V30.0098C25.9531 29.4657 26.3792 29.0247 26.9048 29.0247H28.429C28.9547 29.0247 29.3808 29.4657 29.3808 30.0098V39.401C29.3806 39.9453 28.9547 40.3862 28.429 40.3862Z" fill="#DDA322"/>
<path d="M36.0777 37.736H29.3809V31.6741H36.0777C36.5157 31.6741 36.8708 32.0417 36.8708 32.4951V36.9151C36.8708 37.3687 36.5158 37.736 36.0777 37.736Z" fill="#FFC433"/>
<path d="M42.9648 66.9207L23.3411 74.4909L19.9643 51.5354L23.2567 51.1095C24.126 50.9971 24.7427 50.1764 24.6339 49.2767L24.771 43.4722L25.8597 38.8518C26.303 37.8443 25.8695 36.6448 24.8963 36.186C23.923 35.7271 22.7642 36.1758 22.321 37.1833L21.4138 39.245L6.30762 40.1658L7.57683 51.4412C7.68542 52.341 8.47823 52.9794 9.34745 52.8668L11.4935 52.5891L13.8854 80.9864H45.6221L42.9648 66.9207Z" fill="#F9C5B5"/>
<path d="M75.2912 63.1997V80.2118L42.9648 80.9863V76.9231V71.9221V66.9209L54.8388 65.4982L75.2912 63.1997Z" fill="#0077B6"/>
<path opacity="0.1" d="M75.2922 80.2118V63.1997L70.752 63.71V80.2118H75.2922Z" fill="#020231"/>
<path d="M4.72146 43.4021H2.20913C1.3332 43.4021 0.623047 42.667 0.623047 41.7602V27.6504C0.623047 26.7437 1.3332 26.0085 2.20913 26.0085H4.72146C5.5974 26.0085 6.30755 26.7437 6.30755 27.6504V41.7602C6.30755 42.667 5.59755 43.4021 4.72146 43.4021Z" fill="#DDA322"/>
<path opacity="0.1" d="M36.0772 35.7776H29.3804V37.4423C29.3804 37.9864 28.9543 38.4274 28.4287 38.4274H26.9045C26.3789 38.4274 25.9528 37.9864 25.9528 37.4423V36.943L20.8736 37.3266L6.30755 38.3572V39.8014C6.30755 40.7081 5.5974 41.4433 4.72146 41.4433H2.20913C1.3332 41.4433 0.623047 40.7083 0.623047 39.8014V41.6398C0.623047 42.5465 1.3332 43.2816 2.20913 43.2816H4.72146C5.5974 43.2816 6.30755 42.5465 6.30755 41.6398V40.1956L20.8736 39.165L22.392 39.0501L23.3278 37.1409L25.0978 37.3189L25.9528 38.781V39.2803C25.9528 39.8244 26.3789 40.2655 26.9045 40.2655H28.4287C28.9543 40.2655 29.3804 39.8244 29.3804 39.2803V37.6157H36.0772C36.5152 37.6157 36.8704 37.248 36.8704 36.7947V34.9563C36.8704 35.4101 36.5154 35.7776 36.0772 35.7776Z" fill="#020231"/>
<path d="M24.9804 36.186C24.0071 35.7271 22.8484 36.1758 22.4051 37.1833L19.6701 43.282C19.6701 43.282 16.1503 44.5923 15.3067 47.9604C15.2446 48.2084 14.9462 48.2868 14.7784 48.0987C12.4311 45.4657 9.00858 45.736 6.98828 46.2086L7.57718 51.4409C7.67828 52.2773 8.37046 52.8869 9.16561 52.8783C9.22593 52.8777 9.28655 52.8744 9.34764 52.8665L9.80561 52.8073L11.4964 52.6195L15.6256 52.161C15.6292 52.1715 15.6325 52.1819 15.6362 52.1924L16.7395 52.0374L23.3405 51.1098C24.2098 50.9974 24.8265 50.1768 24.7177 49.277L24.8548 43.4726L25.9435 38.8521C26.3871 37.8445 25.9535 36.6448 24.9804 36.186Z" fill="#F2B8AD"/>
<path d="M47.5684 30.7715C46.9114 30.7715 46.3789 31.3227 46.3789 32.0028V36.1803C46.3789 36.8606 46.9116 37.4116 47.5684 37.4116C48.2255 37.4116 48.758 36.8604 48.758 36.1803V32.0028C48.758 31.3225 48.2255 30.7715 47.5684 30.7715Z" fill="#020231"/>
</svg>
